<?xml version="1.0" standalone="no"?>
<!DOCTYPE svg PUBLIC "-//W3C//DTD SVG 20010904//EN"
 "http://www.w3.org/TR/2001/REC-SVG-20010904/DTD/svg10.dtd">
<svg version="1.0" xmlns="http://www.w3.org/2000/svg"
 width="776.000000pt" height="776.000000pt" viewBox="0 0 776.000000 776.000000"
 preserveAspectRatio="xMidYMid meet">
<metadata>
Created by potrace 1.11, written by Peter Selinger 2001-2013
</metadata>
<g transform="translate(0.000000,776.000000) scale(0.100000,-0.100000)"
fill="#000000" stroke="none">
<path d="M3851 7689 c-12 -5 -60 -31 -107 -59 -46 -27 -89 -50 -94 -50 -6 0
-10 -4 -10 -9 0 -5 -8 -11 -17 -14 -20 -7 -119 -62 -285 -162 -9 -5 -36 -21
-60 -34 -24 -13 -52 -29 -63 -35 -11 -6 -31 -19 -45 -28 -14 -9 -48 -29 -77
-45 -28 -15 -102 -57 -164 -93 -135 -78 -139 -81 -259 -150 -52 -30 -103 -59
-112 -65 -42 -24 -245 -141 -263 -150 -11 -6 -39 -23 -62 -38 -24 -15 -45 -27
-48 -27 -3 0 -24 -11 -46 -26 -22 -14 -55 -33 -72 -43 -136 -78 -168 -97 -217
-123 -30 -17 -62 -37 -71 -44 -8 -8 -18 -14 -22 -14 -3 0 -30 -14 -59 -31 -29
-18 -71 -42 -93 -55 -23 -12 -194 -111 -380 -219 -187 -109 -358 -207 -380
-220 -163 -90 -252 -148 -265 -173 -13 -24 -15 -255 -15 -1913 l1 -1886 24
-24 c14 -14 75 -53 135 -87 61 -35 117 -67 125 -72 56 -34 242 -140 246 -140
2 0 28 -16 58 -35 30 -19 60 -35 66 -35 5 0 10 -5 10 -12 0 -6 3 -8 7 -5 3 4
13 1 22 -6 9 -8 138 -83 286 -168 149 -84 272 -156 275 -159 3 -3 25 -16 50
-29 25 -14 77 -43 115 -66 39 -23 93 -55 120 -70 103 -57 641 -368 667 -386
15 -11 29 -19 32 -19 2 0 97 -54 211 -120 114 -66 211 -120 216 -120 5 0 9 -4
9 -10 0 -5 4 -10 9 -10 5 0 135 -73 288 -162 153 -89 293 -167 312 -173 33
-12 101 -2 101 15 0 4 23 17 50 30 28 13 50 27 50 32 0 4 5 8 10 8 8 0 315
173 390 220 22 13 188 109 235 135 22 12 71 41 109 64 37 22 69 41 71 41 1 0
54 30 116 67 63 36 127 73 144 82 16 9 32 19 35 23 3 4 17 12 30 17 14 6 32
15 40 21 23 15 404 235 421 243 8 4 21 11 29 17 26 17 213 124 263 150 26 14
47 28 47 32 0 5 4 8 10 8 5 0 47 22 94 50 47 27 89 50 95 50 5 0 11 4 13 8 2
5 28 22 58 39 30 17 147 83 260 148 113 65 218 126 235 134 16 9 32 18 35 21
3 3 75 46 160 94 85 49 164 94 174 100 33 19 58 47 65 74 4 15 6 867 6 1894
-1 1584 -3 1870 -15 1893 -12 22 -114 87 -308 195 -14 8 -62 36 -105 63 -43
26 -81 47 -83 47 -2 0 -32 17 -67 38 -34 20 -83 48 -109 62 -27 14 -48 28 -48
32 0 5 -6 8 -14 8 -7 0 -25 9 -40 21 -14 11 -26 17 -26 14 0 -4 -7 -2 -15 5
-22 18 -167 100 -177 100 -4 0 -8 5 -8 10 0 6 -6 10 -14 10 -7 0 -19 7 -26 15
-7 8 -16 12 -21 9 -5 -3 -9 -1 -9 5 0 5 -6 11 -12 13 -11 2 -155 84 -326 185
-41 23 -65 38 -132 75 -25 14 -128 74 -230 133 -102 59 -201 117 -220 127 -19
11 -150 87 -290 168 -140 81 -271 156 -290 167 -19 11 -75 44 -125 73 -142 82
-153 89 -192 111 -116 65 -321 185 -343 199 -32 22 -71 29 -99 19z m137 -265
c53 -31 113 -65 132 -76 19 -11 60 -35 91 -54 31 -19 62 -34 68 -34 6 0 11 -4
11 -10 0 -5 4 -10 9 -10 4 0 60 -30 122 -66 63 -37 134 -78 159 -92 25 -14
113 -64 195 -112 83 -48 166 -97 185 -108 19 -10 118 -67 219 -126 101 -58
187 -106 192 -106 5 0 9 -4 9 -10 0 -5 4 -10 9 -10 5 0 86 -45 181 -100 94
-55 174 -100 176 -100 2 0 23 -12 47 -27 23 -15 52 -33 64 -39 61 -33 89 -50
103 -60 8 -6 40 -25 70 -41 30 -17 84 -47 120 -69 36 -21 67 -37 70 -37 3 1
12 -4 20 -12 8 -7 33 -22 55 -34 22 -12 47 -26 55 -31 28 -19 455 -265 503
-290 26 -14 47 -28 47 -31 0 -3 -10 -11 -22 -17 -13 -6 -45 -25 -73 -41 -27
-16 -61 -36 -75 -44 -14 -8 -144 -83 -290 -167 -146 -84 -278 -161 -295 -170
-16 -10 -80 -46 -141 -82 -61 -36 -117 -68 -125 -71 -8 -4 -27 -15 -44 -26
-29 -17 -306 -178 -392 -227 -23 -13 -92 -53 -153 -89 -61 -36 -115 -65 -121
-65 -5 0 -9 -4 -9 -10 0 -5 -4 -10 -8 -10 -5 0 -76 -39 -158 -86 -82 -48 -167
-97 -189 -109 -22 -13 -94 -54 -160 -93 l-120 -69 -40 23 c-22 12 -56 31 -75
43 -19 11 -57 33 -85 49 -27 16 -67 38 -87 50 -21 12 -54 31 -74 42 -19 11
-47 28 -61 37 l-25 17 24 18 c12 9 26 18 29 18 4 0 68 36 144 80 76 44 139 80
140 80 2 0 39 21 82 48 43 26 89 53 103 59 14 7 43 24 65 38 22 14 47 28 55
32 8 3 31 16 50 28 19 12 55 33 80 47 107 60 126 71 135 78 6 4 30 19 55 32
25 14 119 68 210 120 91 53 181 105 200 116 281 161 409 238 427 255 12 12 24
38 27 58 7 60 -8 72 -319 249 -16 10 -97 56 -179 104 -82 47 -153 86 -158 86
-4 0 -8 5 -8 10 0 6 -5 10 -11 10 -6 0 -49 23 -97 51 -48 29 -107 63 -132 77
-25 14 -57 34 -72 44 -16 11 -28 16 -28 12 0 -4 -8 0 -17 8 -16 14 -89 57
-195 116 -20 12 -153 88 -295 170 -142 82 -310 179 -373 216 -63 36 -125 66
-137 66 -26 0 -113 -40 -113 -52 0 -4 -5 -8 -10 -8 -6 0 -70 -34 -143 -76 -72
-43 -242 -141 -377 -219 -135 -78 -366 -211 -515 -297 -148 -86 -286 -165
-305 -177 -19 -11 -51 -29 -70 -40 -147 -80 -459 -267 -474 -283 -24 -26 -25
-91 -1 -118 19 -21 148 -100 163 -100 6 0 12 -3 14 -8 2 -4 44 -31 93 -59 50
-28 131 -75 180 -104 50 -29 108 -62 130 -74 34 -19 526 -304 990 -572 72 -42
144 -84 162 -94 17 -10 50 -29 72 -43 22 -15 43 -26 45 -26 2 0 77 -43 167
-95 89 -52 163 -95 165 -95 2 0 44 -25 94 -55 50 -30 93 -55 95 -55 3 0 33
-17 67 -38 35 -21 70 -41 78 -45 8 -4 29 -15 45 -26 17 -10 158 -92 315 -183
157 -91 301 -175 320 -186 19 -12 58 -33 85 -48 70 -37 95 -52 130 -74 17 -11
37 -23 45 -27 8 -4 38 -20 65 -36 56 -33 84 -49 170 -98 33 -18 62 -37 63 -41
2 -4 8 -8 13 -8 4 0 46 -22 93 -50 47 -27 89 -50 95 -50 6 0 11 -4 11 -10 0
-5 6 -10 14 -10 7 0 19 -7 26 -15 6 -8 15 -13 19 -12 3 1 29 -12 56 -29 28
-17 142 -84 255 -149 169 -98 212 -118 247 -119 32 -1 48 5 65 22 l23 23 3
779 c3 872 7 819 -68 841 -34 10 -44 9 -87 -11 -26 -13 -50 -26 -53 -30 -3 -3
-45 -29 -95 -57 -117 -66 -541 -311 -580 -334 -16 -11 -37 -22 -45 -26 -18 -8
-159 -89 -180 -103 -8 -6 -26 -16 -40 -23 -14 -7 -59 -32 -100 -57 -139 -82
-130 -79 -165 -60 -82 46 -373 214 -393 227 -23 14 -18 18 175 129 109 62 205
118 213 123 39 26 194 111 201 111 4 0 9 3 11 8 2 4 100 63 218 131 118 68
229 131 245 141 118 69 229 130 235 130 5 0 10 4 12 8 2 4 41 29 88 56 47 27
99 56 115 66 188 109 279 160 286 160 5 0 9 5 9 10 0 6 4 10 9 10 5 0 76 39
158 86 256 149 283 163 284 151 0 -16 0 -3350 0 -3359 -1 -9 -13 -2 -306 167
-121 70 -236 136 -255 147 -49 29 -311 181 -335 195 -11 7 -27 16 -35 20 -8 4
-53 29 -100 56 -47 27 -98 57 -115 67 -16 9 -54 31 -83 49 -29 17 -54 31 -56
31 -2 0 -34 18 -70 40 -36 22 -70 40 -76 40 -5 0 -10 5 -10 10 0 6 -4 10 -9
10 -5 0 -129 70 -276 155 -146 85 -271 155 -276 155 -5 0 -9 5 -9 10 0 6 -4
10 -9 10 -7 0 -286 157 -351 198 -14 9 -26 14 -26 11 -1 -2 -10 3 -20 12 -11
9 -65 43 -122 75 -57 32 -120 69 -140 81 -20 12 -44 25 -52 29 -8 4 -122 70
-253 146 -131 76 -242 138 -247 138 -6 0 -10 5 -10 10 0 6 -4 10 -9 10 -8 0
-344 190 -366 207 -12 9 -50 31 -105 60 -19 10 -37 21 -40 24 -3 3 -30 19 -60
35 -63 35 -327 187 -540 312 -80 46 -169 98 -198 113 -46 26 -85 48 -147 86
-19 11 -215 123 -260 149 -35 19 -579 334 -595 344 -8 5 -49 28 -90 52 -41 23
-83 47 -93 53 -26 15 -327 190 -364 211 -40 23 -41 29 -5 43 15 6 48 24 74 41
26 16 73 44 105 61 32 18 121 69 198 114 189 110 424 246 455 262 14 8 39 22
55 32 17 10 118 69 225 131 107 62 291 168 408 236 118 68 218 124 223 124 5
0 9 3 9 8 0 4 15 13 33 21 17 8 39 19 47 26 8 7 42 27 75 45 33 17 65 35 70
40 6 4 30 19 55 32 25 14 110 63 190 110 80 46 152 87 160 91 8 5 32 18 52 30
20 12 78 46 130 76 184 107 236 137 280 161 21 11 59 34 85 50 26 17 53 30 60
30 8 0 58 -25 111 -56z m-206 -756 c2 -7 3 -123 3 -257 l-1 -245 -49 -29 c-50
-30 -86 -51 -148 -86 -18 -10 -94 -53 -168 -96 -281 -162 -657 -380 -737 -426
-53 -31 -89 -46 -100 -42 -9 4 -55 29 -102 56 -47 28 -96 56 -110 64 -14 8
-47 28 -75 44 -27 16 -61 35 -75 42 -14 6 -31 17 -37 23 -7 7 -18 14 -25 17
-7 2 -11 6 -8 9 3 3 208 121 455 263 248 143 453 264 457 270 4 5 8 6 8 1 0
-5 8 -2 18 6 9 8 49 32 87 53 39 20 77 44 86 51 8 8 18 14 22 14 5 0 198 109
247 140 57 35 174 100 181 100 5 0 9 3 9 8 0 6 35 28 51 31 4 0 9 -5 11 -11z
m548 -186 c157 -91 310 -178 340 -195 30 -16 66 -38 80 -47 14 -10 50 -31 80
-48 30 -16 123 -69 205 -117 83 -48 175 -102 206 -119 178 -100 369 -212 369
-217 0 -3 -44 -31 -97 -61 -54 -31 -154 -88 -223 -128 -91 -53 -128 -70 -140
-63 -8 5 -31 18 -50 29 -19 10 -37 21 -40 24 -3 3 -21 14 -40 25 -102 57 -269
152 -290 165 -38 24 -343 200 -346 200 -2 0 -32 17 -66 38 -35 21 -70 41 -78
45 -8 4 -71 39 -139 79 l-124 73 -2 250 c0 138 1 253 3 257 4 11 25 0 352
-190z m-130 -669 c70 -39 501 -288 643 -371 112 -65 125 -76 110 -87 -10 -6
-63 -37 -118 -69 -55 -31 -107 -61 -115 -66 -13 -9 -123 -72 -230 -132 -99
-56 -125 -73 -128 -80 -2 -4 -12 -8 -22 -8 -10 0 -22 -4 -25 -10 -3 -5 -71
-47 -151 -92 -80 -46 -167 -96 -192 -111 -86 -51 -90 -52 -120 -35 -15 9 -50
29 -77 44 -107 61 -271 155 -285 164 -8 6 -123 72 -255 148 -132 76 -286 164
-342 197 -116 66 -116 59 -3 122 30 17 71 40 90 51 19 10 58 33 86 49 27 17
70 41 95 55 24 14 112 65 194 113 83 48 174 100 203 116 28 16 69 39 90 52 20
13 44 27 52 31 8 3 53 28 99 55 l83 48 137 -79 c75 -44 156 -91 181 -105z
m-3400 -269 c8 -7 20 -14 25 -15 6 -1 19 -7 30 -14 62 -38 147 -85 156 -85 5
0 9 -4 9 -10 0 -5 6 -10 14 -10 8 0 21 -6 28 -12 8 -7 29 -21 48 -32 19 -10
51 -28 70 -39 19 -11 60 -33 90 -50 30 -16 62 -35 70 -41 8 -6 35 -22 60 -35
25 -13 52 -30 61 -37 8 -8 18 -14 21 -14 4 0 46 -23 95 -51 81 -48 173 -101
255 -148 18 -10 116 -67 218 -126 102 -59 203 -118 225 -130 22 -12 92 -53
155 -90 63 -37 138 -80 165 -95 28 -15 85 -48 128 -74 43 -25 83 -46 88 -46 5
0 9 -4 9 -10 0 -5 4 -10 9 -10 5 0 49 -23 98 -51 48 -29 108 -63 133 -77 25
-14 126 -73 225 -130 99 -58 196 -114 215 -125 43 -24 482 -277 530 -305 19
-12 87 -51 150 -87 63 -37 131 -76 150 -87 19 -12 53 -31 75 -43 22 -12 75
-43 118 -69 43 -25 80 -46 82 -46 3 0 110 -62 155 -90 15 -9 157 -92 208 -120
15 -9 56 -33 92 -54 36 -21 85 -50 110 -64 25 -14 173 -99 330 -190 157 -91
299 -172 315 -182 41 -23 208 -120 253 -147 42 -24 67 -39 134 -76 26 -15 113
-65 193 -112 81 -47 151 -85 156 -85 5 0 9 -4 9 -10 0 -5 4 -10 10 -10 8 0 43
-19 220 -124 25 -15 53 -29 63 -33 9 -3 17 -9 17 -14 0 -5 7 -9 15 -9 8 0 15
-3 15 -7 0 -8 -95 -64 -106 -62 -4 0 -10 -3 -13 -8 -3 -4 -17 -14 -31 -22 -14
-8 -105 -61 -204 -118 -98 -57 -181 -103 -184 -103 -3 0 -13 -6 -21 -14 -9 -8
-38 -26 -66 -41 -27 -15 -72 -40 -100 -56 -27 -16 -61 -35 -75 -41 -14 -7 -29
-16 -35 -21 -5 -4 -89 -53 -185 -109 -96 -55 -249 -143 -340 -196 -91 -52
-178 -103 -195 -112 -16 -10 -86 -50 -155 -90 -69 -39 -181 -104 -250 -143
-69 -40 -126 -75 -128 -79 -2 -5 -7 -8 -12 -8 -7 0 -124 -66 -448 -254 -74
-43 -155 -89 -180 -103 -26 -15 -90 -51 -142 -82 -153 -90 -145 -87 -183 -68
-17 9 -39 21 -47 27 -37 25 -313 180 -319 180 -4 0 -12 5 -19 12 -14 14 -114
72 -154 90 -16 7 -28 16 -28 20 0 4 -4 8 -10 8 -5 0 -33 14 -62 31 -52 31 -85
50 -151 88 -18 10 -89 51 -157 91 -143 84 -235 136 -267 152 -13 6 -23 15 -23
20 0 4 -6 8 -14 8 -13 0 -118 59 -143 80 -7 5 -15 10 -17 10 -3 0 -51 27 -107
60 -55 33 -102 60 -104 60 -2 0 -86 48 -187 107 -101 59 -194 113 -208 120
-14 8 -43 25 -65 39 -22 13 -47 27 -55 31 -8 4 -43 24 -78 45 -34 21 -67 38
-72 38 -6 0 -10 4 -10 8 0 5 -16 14 -35 22 -19 8 -35 17 -35 22 0 4 -4 8 -10
8 -5 0 -47 22 -92 49 -46 27 -99 58 -118 68 -60 34 -301 173 -326 188 -13 8
-36 22 -50 31 l-26 16 67 39 c37 21 71 39 76 39 5 0 9 5 9 10 0 6 4 10 9 10 8
0 166 89 231 130 8 5 67 38 130 75 157 89 191 109 295 170 50 29 106 62 125
73 63 36 234 134 265 152 206 120 417 240 424 240 5 0 11 3 13 8 2 5 295 177
408 239 14 8 39 23 55 33 17 11 37 23 45 27 8 4 59 33 113 65 55 32 105 58
113 58 7 0 63 -29 123 -65 60 -36 112 -65 114 -65 2 0 45 -25 95 -55 50 -30
96 -55 102 -55 32 0 -8 -29 -167 -120 -98 -56 -191 -110 -208 -120 -77 -44
-294 -170 -325 -189 -19 -11 -41 -24 -48 -27 -8 -4 -133 -76 -279 -160 -146
-85 -270 -154 -274 -154 -5 0 -9 -4 -9 -10 0 -5 -4 -10 -9 -10 -5 0 -49 -23
-98 -51 -48 -29 -146 -85 -218 -126 -147 -85 -172 -105 -179 -148 -9 -49 21
-85 120 -141 49 -28 145 -84 214 -124 69 -39 143 -82 165 -95 22 -12 81 -46
130 -75 50 -29 115 -66 145 -83 30 -17 66 -38 79 -49 13 -10 27 -18 31 -18 4
0 70 -37 146 -81 76 -45 159 -93 184 -107 25 -13 50 -28 55 -32 6 -4 30 -19
55 -32 25 -14 174 -100 332 -191 338 -196 341 -197 369 -197 17 0 197 94 269
140 27 18 285 166 355 204 11 6 27 16 35 22 14 10 62 37 160 90 19 11 37 22
40 25 3 3 30 19 60 36 30 17 71 40 90 51 19 10 86 49 148 86 62 36 116 66 119
66 4 0 14 6 22 14 9 8 39 26 66 40 28 15 57 31 65 37 8 5 132 77 275 159 301
173 301 173 313 208 21 60 0 95 -87 144 -31 18 -57 35 -59 40 -2 4 -9 8 -15 8
-6 0 -53 25 -103 55 -51 30 -97 55 -103 55 -6 0 -11 5 -11 10 0 6 -4 10 -10
10 -5 0 -44 21 -87 46 -43 26 -98 58 -123 72 -25 14 -101 58 -170 98 -338 196
-494 284 -501 284 -5 0 -9 4 -9 9 0 5 -6 11 -13 13 -13 3 -144 78 -502 286
-71 41 -143 83 -160 92 -16 10 -50 29 -75 44 -25 14 -81 46 -125 71 -44 26
-93 54 -110 64 -16 10 -48 28 -70 41 -90 51 -445 256 -512 297 -40 24 -77 43
-83 43 -5 0 -10 5 -10 10 0 6 -5 10 -10 10 -6 0 -79 40 -163 88 -292 171 -612
356 -652 377 -22 12 -75 43 -118 69 -43 25 -82 46 -87 46 -6 0 -10 5 -10 10 0
6 -4 10 -9 10 -9 0 -106 53 -161 88 -14 9 -28 15 -33 14 -4 -1 -7 3 -7 8 0 6
-5 10 -10 10 -6 0 -36 16 -66 35 -30 19 -57 35 -60 35 -2 0 -55 30 -117 67
-94 57 -119 68 -155 67 -30 -1 -50 -7 -65 -23 l-22 -22 0 -789 0 -789 23 -23
c16 -16 34 -23 65 -23 36 0 72 18 242 117 110 63 219 126 242 139 23 13 152
88 285 165 134 78 259 151 278 162 19 10 82 47 139 80 l104 61 46 -26 c25 -15
63 -37 83 -50 21 -13 42 -23 47 -23 5 0 11 -3 13 -7 2 -5 17 -15 33 -24 17 -9
74 -42 128 -74 l99 -57 -134 -77 c-73 -43 -261 -152 -418 -243 -157 -91 -305
-176 -330 -190 -25 -14 -84 -48 -132 -77 -48 -28 -91 -51 -97 -51 -6 0 -11 -3
-11 -7 0 -5 -10 -13 -23 -19 -12 -6 -110 -61 -217 -124 -107 -62 -215 -124
-240 -138 -25 -14 -76 -44 -115 -67 -38 -22 -77 -44 -85 -48 -8 -4 -24 -13
-35 -20 -36 -22 -156 -92 -181 -105 -13 -7 -76 -44 -141 -82 -65 -38 -119 -67
-121 -65 -4 4 -6 313 -2 330 1 6 2 15 1 20 -6 29 -2 1575 3 1583 3 6 3 13 -1
15 -7 4 -9 273 -3 302 1 6 2 15 0 20 -1 8 -2 991 0 1078 0 29 7 29 40 1z m832
-1221 c120 -69 218 -131 219 -137 4 -65 0 -616 -4 -623 -4 -6 -21 -18 -39 -27
-18 -9 -40 -21 -48 -26 -59 -37 -191 -110 -199 -110 -6 0 -11 -4 -11 -8 0 -8
-51 -36 -59 -32 -2 1 -7 -3 -10 -8 -5 -8 -64 -42 -74 -42 -2 0 -4 257 -4 570
0 314 2 570 5 570 3 0 103 -57 224 -127z m4725 -443 c0 -472 -2 -570 -14 -570
-7 0 -13 5 -13 10 0 6 -5 10 -11 10 -6 0 -49 23 -97 51 -48 29 -107 63 -132
77 -25 14 -62 36 -82 49 -21 12 -41 23 -45 23 -5 0 -18 8 -31 18 -22 17 -22
18 -23 312 0 162 0 305 1 317 0 21 26 39 135 99 22 12 99 56 170 98 72 41 133
76 136 76 3 0 6 -256 6 -570z m-4206 144 c93 -56 182 -106 228 -130 l23 -12
-23 -13 c-13 -8 -33 -19 -44 -26 -11 -7 -28 -16 -37 -19 -10 -3 -18 -10 -18
-15 0 -5 -4 -9 -9 -9 -6 0 -52 -24 -103 -54 -51 -30 -99 -56 -107 -58 -12 -2
-14 30 -15 195 -1 108 1 197 5 197 3 0 48 -25 100 -56z m3564 -141 c-1 -166
-3 -197 -15 -195 -14 3 -85 43 -185 102 -27 17 -71 41 -97 55 -27 14 -48 28
-48 31 0 7 43 43 52 44 3 0 69 36 145 80 76 44 140 80 143 80 3 0 5 -89 5
-197z m-1708 -931 c65 -38 195 -113 288 -167 94 -54 240 -139 325 -188 85 -49
180 -103 210 -120 30 -16 62 -35 70 -41 8 -7 27 -18 43 -26 15 -7 24 -17 20
-21 -5 -4 -51 -32 -103 -62 -52 -29 -140 -80 -195 -112 -132 -77 -145 -84
-245 -141 -47 -26 -87 -50 -90 -53 -3 -4 -16 -12 -30 -18 -14 -7 -47 -26 -75
-42 -27 -16 -66 -38 -85 -49 -19 -11 -85 -49 -147 -85 -100 -59 -113 -64 -135
-53 -26 14 -340 195 -608 351 -96 56 -204 119 -240 139 -36 20 -72 41 -80 46
-8 5 -44 26 -78 46 -71 40 -72 37 18 85 25 13 47 27 50 30 3 3 30 19 60 35 82
45 104 58 111 67 3 5 9 8 13 8 3 -1 16 5 29 13 76 47 288 166 297 166 5 0 10
5 10 10 0 6 4 10 10 10 5 0 47 22 92 49 273 161 324 190 335 191 6 0 64 -31
130 -68z m-1336 -714 c41 -24 76 -46 77 -50 2 -5 7 -8 12 -8 7 0 281 -156 438
-249 29 -17 55 -31 58 -31 3 0 18 -8 32 -19 15 -10 54 -34 88 -52 211 -117
404 -233 405 -243 5 -69 2 -499 -3 -503 -5 -2 -50 20 -100 50 -51 30 -109 64
-128 75 -19 10 -73 42 -120 69 -47 27 -96 56 -110 64 -14 8 -33 20 -42 28 -10
8 -18 10 -18 6 0 -4 -8 -1 -17 7 -10 8 -65 42 -122 74 -57 32 -120 69 -140 81
-20 13 -43 26 -51 30 -8 4 -43 24 -78 45 -34 21 -64 38 -66 38 -2 0 -50 27
-105 60 -56 33 -106 60 -111 60 -6 0 -10 5 -10 10 0 6 -5 10 -11 10 -6 0 -56
27 -111 60 -56 33 -105 60 -109 60 -5 0 -9 5 -9 10 0 6 -5 10 -10 10 -15 0
-160 83 -160 92 0 3 12 13 28 21 29 15 267 152 292 167 8 6 26 16 40 22 14 7
27 15 30 18 7 8 44 29 51 29 4 1 40 -18 80 -41z m2722 -87 c119 -69 217 -127
217 -130 0 -3 -44 -31 -98 -61 -53 -30 -99 -57 -102 -61 -3 -3 -9 -8 -15 -10
-11 -4 -170 -94 -195 -109 -17 -11 -217 -126 -283 -164 -23 -13 -93 -53 -155
-90 -62 -36 -117 -66 -122 -66 -4 0 -10 -3 -12 -7 -1 -5 -16 -15 -33 -24 -26
-14 -396 -225 -435 -249 -97 -58 -155 -90 -168 -92 -15 -3 -16 22 -17 245 0
137 3 254 7 259 3 6 31 25 61 42 31 17 122 69 203 116 81 47 168 97 193 111
25 14 96 55 156 91 61 35 135 78 165 95 30 17 132 76 225 131 94 55 175 100
180 99 6 -1 108 -58 228 -126z"/>
</g>
</svg>
